<svg width="1102" height="640" viewBox="0 0 1102 640" fill="none" xmlns="http://www.w3.org/2000/svg">
<g clip-path="url(#clip0)">
<g opacity="0.1">
<path opacity="0.1" d="M810.225 630.56C821.988 630.56 831.523 618.079 831.523 602.684C831.523 587.288 821.988 574.807 810.225 574.807C798.463 574.807 788.928 587.288 788.928 602.684C788.928 618.079 798.463 630.56 810.225 630.56Z" fill="#3F3D56"/>
<path opacity="0.1" d="M827.078 483.425C830.062 478.246 831.61 472.364 831.562 466.387C831.562 450.959 822.026 438.511 810.264 438.511C798.502 438.511 788.976 450.988 788.976 466.387C788.916 472.361 790.45 478.242 793.421 483.425C790.506 488.629 788.976 494.494 788.976 500.459C788.976 506.423 790.506 512.288 793.421 517.492C790.506 522.698 788.976 528.564 788.976 534.531C788.976 540.497 790.506 546.363 793.421 551.569C790.45 556.752 788.916 562.633 788.976 568.607C788.976 584.035 798.511 596.483 810.264 596.483C822.017 596.483 831.562 584.006 831.562 568.607C831.622 562.633 830.087 556.752 827.117 551.569C830.031 546.363 831.562 540.497 831.562 534.531C831.562 528.564 830.031 522.698 827.117 517.492C830.031 512.288 831.562 506.423 831.562 500.459C831.562 494.494 830.031 488.629 827.117 483.425H827.078Z" fill="#3F3D56"/>
<path opacity="0.1" d="M810.225 460.197C821.988 460.197 831.523 447.716 831.523 432.32C831.523 416.925 821.988 404.444 810.225 404.444C798.463 404.444 788.928 416.925 788.928 432.32C788.928 447.716 798.463 460.197 810.225 460.197Z" fill="#3F3D56"/>
<path opacity="0.1" d="M810.225 426.12C821.988 426.12 831.523 413.639 831.523 398.244C831.523 382.848 821.988 370.367 810.225 370.367C798.463 370.367 788.928 382.848 788.928 398.244C788.928 413.639 798.463 426.12 810.225 426.12Z" fill="#3F3D56"/>
<path opacity="0.1" d="M889.94 165.07C892.846 161.364 895.494 157.462 897.865 153.392L841.945 144.203L902.464 144.656C908.264 132.024 911.426 118.34 911.758 104.444C912.089 90.5467 909.583 76.7282 904.392 63.8332L823.193 105.932L898.087 50.9123C891.068 38.7983 881.631 28.2589 870.364 19.95C859.097 11.6411 846.24 5.74059 832.595 2.61577C818.949 -0.509052 804.806 -0.791301 791.046 1.7866C777.287 4.36449 764.205 9.74736 752.615 17.6001C741.025 25.4529 731.176 35.6074 723.68 47.4317C716.184 59.2559 711.201 72.4968 709.043 86.33C706.884 100.163 707.596 114.293 711.134 127.839C714.671 141.385 720.959 154.058 729.605 165.07C725.073 170.834 721.175 177.071 717.978 183.67L790.605 221.411L713.167 195.376C707.718 211.446 706.363 228.621 709.225 245.347C712.086 262.073 719.075 277.821 729.557 291.164C717.723 306.211 710.362 324.284 708.314 343.317C706.267 362.351 709.616 381.577 717.978 398.796C726.341 416.016 739.38 430.535 755.604 440.692C771.828 450.85 790.583 456.237 809.724 456.237C828.865 456.237 847.62 450.85 863.844 440.692C880.068 430.535 893.107 416.016 901.47 398.796C909.833 381.577 913.182 362.351 911.134 343.317C909.087 324.284 901.725 306.211 889.891 291.164C904.033 273.185 911.721 250.973 911.721 228.098C911.721 205.222 904.033 183.011 889.891 165.031L889.94 165.07Z" fill="#FF6347"/>
<path opacity="0.1" d="M707.777 228.141C707.742 251.021 715.433 273.242 729.605 291.203C717.771 306.249 710.41 324.322 708.362 343.356C706.315 362.389 709.664 381.615 718.026 398.835C726.389 416.054 739.428 430.573 755.652 440.731C771.876 450.889 790.631 456.275 809.772 456.275C828.913 456.275 847.668 450.889 863.892 440.731C880.116 430.573 893.155 416.054 901.518 398.835C909.881 381.615 913.23 362.389 911.182 343.356C909.135 324.322 901.773 306.249 889.94 291.203C903.611 273.846 707.777 216.686 707.777 228.141Z" fill="black"/>
</g>
<g opacity="0.1">
<path opacity="0.1" d="M212.889 600.746C220.046 600.746 225.847 593.148 225.847 583.775C225.847 574.402 220.046 566.804 212.889 566.804C205.733 566.804 199.932 574.402 199.932 583.775C199.932 593.148 205.733 600.746 212.889 600.746Z" fill="#3F3D56"/>
<path opacity="0.1" d="M223.196 511.177C225.005 508.02 225.94 504.439 225.905 500.801C225.905 491.429 220.12 483.831 212.938 483.831C205.755 483.831 199.98 491.429 199.98 500.801C199.942 504.438 200.874 508.019 202.679 511.177C200.909 514.346 199.98 517.917 199.98 521.547C199.98 525.178 200.909 528.748 202.679 531.918C200.909 535.087 199.98 538.657 199.98 542.288C199.98 545.919 200.909 549.489 202.679 552.658C200.872 555.812 199.94 559.39 199.98 563.024C199.98 572.406 205.764 580.005 212.938 580.005C220.111 580.005 225.905 572.406 225.905 563.024C225.941 559.389 225.006 555.811 223.196 552.658C224.971 549.49 225.903 545.92 225.903 542.288C225.903 538.656 224.971 535.086 223.196 531.918C224.971 528.75 225.903 525.179 225.903 521.547C225.903 517.916 224.971 514.345 223.196 511.177V511.177Z" fill="#3F3D56"/>
<path opacity="0.1" d="M212.889 497.031C220.046 497.031 225.847 489.433 225.847 480.06C225.847 470.688 220.046 463.09 212.889 463.09C205.733 463.09 199.932 470.688 199.932 480.06C199.932 489.433 205.733 497.031 212.889 497.031Z" fill="#3F3D56"/>
<path opacity="0.1" d="M212.889 476.29C220.046 476.29 225.847 468.692 225.847 459.319C225.847 449.947 220.046 442.349 212.889 442.349C205.733 442.349 199.932 449.947 199.932 459.319C199.932 468.692 205.733 476.29 212.889 476.29Z" fill="#3F3D56"/>
<path opacity="0.1" d="M164.384 317.363C162.614 315.109 161.004 312.734 159.563 310.256L193.626 304.664L156.787 304.943C153.26 297.257 151.336 288.932 151.132 280.477C150.928 272.022 152.449 263.615 155.601 255.767L204.993 281.425L159.419 247.87C163.693 240.5 169.439 234.089 176.297 229.035C183.155 223.982 190.98 220.394 199.284 218.494C207.589 216.595 216.195 216.425 224.568 217.995C232.941 219.565 240.901 222.841 247.954 227.62C255.006 232.399 261 238.578 265.562 245.773C270.124 252.968 273.157 261.025 274.472 269.443C275.787 277.861 275.356 286.459 273.206 294.703C271.056 302.947 267.232 310.66 261.973 317.363C264.732 320.868 267.105 324.66 269.05 328.674L224.835 351.661L271.981 335.838C275.292 345.624 276.111 356.082 274.364 366.265C272.616 376.447 268.358 386.033 261.973 394.156C269.176 403.315 273.657 414.317 274.903 425.904C276.149 437.49 274.11 449.194 269.019 459.676C263.928 470.158 255.99 478.996 246.114 485.179C236.238 491.362 224.821 494.641 213.169 494.641C201.517 494.641 190.1 491.362 180.224 485.179C170.348 478.996 162.41 470.158 157.319 459.676C152.228 449.194 150.189 437.49 151.435 425.904C152.681 414.317 157.162 403.315 164.365 394.156C155.757 383.208 151.078 369.686 151.078 355.759C151.078 341.833 155.757 328.31 164.365 317.363H164.384Z" fill="#FF6347"/>
<path opacity="0.1" d="M275.259 355.759C275.28 369.689 270.598 383.218 261.973 394.156C269.176 403.315 273.657 414.317 274.903 425.904C276.149 437.49 274.11 449.194 269.019 459.676C263.928 470.158 255.99 478.996 246.114 485.179C236.238 491.362 224.821 494.642 213.169 494.642C201.517 494.642 190.1 491.362 180.224 485.179C170.348 478.996 162.41 470.158 157.319 459.676C152.228 449.194 150.189 437.49 151.435 425.904C152.681 414.317 157.162 403.315 164.365 394.156C156.044 383.636 275.259 348.788 275.259 355.759Z" fill="black"/>
</g>
<g opacity="0.1">
<path opacity="0.1" d="M505.021 615.518C514.6 615.518 522.365 605.351 522.365 592.81C522.365 580.269 514.6 570.102 505.021 570.102C495.441 570.102 487.676 580.269 487.676 592.81C487.676 605.351 495.441 615.518 505.021 615.518Z" fill="#3F3D56"/>
<path opacity="0.1" d="M518.75 495.652C521.167 491.427 522.415 486.635 522.365 481.767C522.365 469.232 514.652 459.059 505.011 459.059C495.37 459.059 487.657 469.232 487.657 481.767C487.606 486.636 488.857 491.43 491.282 495.652C488.905 499.892 487.657 504.672 487.657 509.533C487.657 514.393 488.905 519.173 491.282 523.413C488.905 527.651 487.657 532.429 487.657 537.288C487.657 542.148 488.905 546.926 491.282 551.164C488.857 555.386 487.606 560.18 487.657 565.049C487.657 577.584 495.428 587.757 505.011 587.757C514.594 587.757 522.365 577.584 522.365 565.049C522.415 560.182 521.167 555.389 518.75 551.164C521.121 546.924 522.366 542.147 522.366 537.288C522.366 532.43 521.121 527.653 518.75 523.413C521.121 519.171 522.366 514.392 522.366 509.533C522.366 504.673 521.121 499.894 518.75 495.652V495.652Z" fill="#3F3D56"/>
<path opacity="0.1" d="M505.021 476.724C514.6 476.724 522.365 466.557 522.365 454.016C522.365 441.475 514.6 431.308 505.021 431.308C495.441 431.308 487.676 441.475 487.676 454.016C487.676 466.557 495.441 476.724 505.021 476.724Z" fill="#3F3D56"/>
<path opacity="0.1" d="M505.021 448.963C514.6 448.963 522.365 438.797 522.365 426.255C522.365 413.714 514.6 403.547 505.021 403.547C495.441 403.547 487.676 413.714 487.676 426.255C487.676 438.797 495.441 448.963 505.021 448.963Z" fill="#3F3D56"/>
<path opacity="0.1" d="M440.125 236.298C437.754 233.283 435.596 230.106 433.665 226.791L479.24 219.308L429.953 219.675C425.224 209.384 422.644 198.237 422.371 186.915C422.097 175.592 424.136 164.333 428.363 153.826L494.502 188.134L433.501 143.297C439.201 133.392 446.881 124.768 456.063 117.966C465.244 111.164 475.73 106.328 486.865 103.762C498 101.195 509.544 100.953 520.777 103.05C532.009 105.148 542.688 109.539 552.147 115.951C561.606 122.362 569.641 130.656 575.751 140.313C581.86 149.971 585.912 160.785 587.654 172.079C589.395 183.374 588.789 194.906 585.874 205.956C582.958 217.005 577.794 227.335 570.707 236.298C574.397 240.997 577.572 246.079 580.174 251.456L521.016 282.197L584.098 260.983C588.53 274.079 589.626 288.073 587.288 301.698C584.949 315.324 579.251 328.152 570.707 339.02C580.346 351.277 586.342 366 588.009 381.505C589.676 397.01 586.947 412.672 580.135 426.699C573.322 440.726 562.7 452.553 549.483 460.827C536.267 469.101 520.989 473.489 505.397 473.489C489.804 473.489 474.526 469.101 461.31 460.827C448.093 452.553 437.471 440.726 430.659 426.699C423.846 412.672 421.117 397.01 422.784 381.505C424.451 366 430.447 351.277 440.086 339.02C428.57 324.37 422.309 306.275 422.309 287.64C422.309 269.004 428.57 250.909 440.086 236.26L440.125 236.298Z" fill="#FF6347"/>
</g>
<path d="M1102 613.474C1102 620.098 1053.58 626.154 973.53 630.83C958.971 631.669 943.372 632.469 926.827 633.222C912.532 633.864 897.55 634.472 881.88 635.044C866.698 635.584 850.934 636.085 834.589 636.548C782.97 638.023 725.903 639.084 665.278 639.614C650.566 639.749 635.657 639.852 620.552 639.923C604.818 639.994 588.903 640.026 572.809 640.019C280.542 640.019 43.6268 628.15 43.6268 613.503C43.6268 598.856 280.542 586.986 572.809 586.986C698.637 586.986 814.188 589.194 905.009 592.858L914.94 593.263H914.997C1029.4 598.113 1102 605.413 1102 613.474Z" fill="#3F3D56"/>
<path opacity="0.15" d="M1102 613.474C1102 620.098 1053.58 626.154 973.53 630.83C958.971 631.669 943.372 632.469 926.827 633.222C912.532 633.864 897.55 634.472 881.88 635.044C866.698 635.584 850.934 636.085 834.589 636.548C782.97 638.023 725.903 639.084 665.278 639.614C650.566 639.749 635.657 639.852 620.552 639.923C604.818 639.994 588.903 640.026 572.809 640.019C280.542 640.019 43.6268 628.15 43.6268 613.503C43.6268 598.856 280.542 586.986 572.809 586.986C698.637 586.986 814.188 589.194 905.009 592.858L914.94 593.263H914.997C1029.4 598.113 1102 605.413 1102 613.474Z" fill="black"/>
<path d="M1058.37 608.807C1058.37 614.342 1009.95 619.413 929.903 623.27C915.354 623.974 899.745 624.64 883.21 625.266C868.909 625.806 853.926 626.314 838.262 626.79C823.081 627.24 807.317 627.661 790.972 628.053C739.343 629.287 682.276 630.174 621.651 630.618C606.952 630.727 592.043 630.811 576.925 630.869C561.191 630.927 545.28 630.955 529.191 630.955C236.925 630.955 0 621.033 0 608.778C0 596.522 236.925 586.6 529.191 586.6C655.01 586.6 770.561 588.442 861.382 591.508L871.313 591.846H871.38C985.822 595.963 1058.37 602.028 1058.37 608.807Z" fill="#3F3D56"/>
<path d="M136.675 407.346L123.389 366.665L441.552 363.184L454.587 403.46L136.675 407.346Z" fill="#3F3D56"/>
<path opacity="0.15" d="M136.675 407.346L123.389 366.665L441.552 363.184L454.587 403.46L136.675 407.346Z" fill="black"/>
<path d="M115.464 407.346L102.178 366.665L420.341 363.184L433.376 403.46L115.464 407.346Z" fill="#3F3D56"/>
<path d="M658.606 344.834C625.71 344.834 599.785 331.775 580.83 305.657C561.875 279.539 552.398 247.898 552.398 210.736C552.398 173.324 561.564 141.748 579.895 116.009C598.226 90.2697 624.084 77.413 657.469 77.4388C692.872 77.4388 719.546 90.9993 737.492 118.12C755.437 145.241 764.413 176.631 764.42 212.289C764.42 247.69 755.132 278.635 736.556 305.127C717.981 331.618 691.997 344.854 658.606 344.834ZM659.571 315.454C681.212 315.454 697.387 306.02 708.095 287.153C718.803 268.286 724.158 244.501 724.158 215.799C724.158 183.85 718.678 157.69 707.719 137.319C696.76 116.947 679.952 106.758 657.295 106.752C614.231 106.752 592.699 140.963 592.699 209.386C592.699 280.104 614.983 315.46 659.551 315.454H659.571ZM670.407 596.811H622.828L934.319 82.6746H981.002L670.407 596.811ZM945.975 602.086C912.584 602.086 886.552 588.908 867.88 562.552C849.208 536.196 839.834 504.552 839.757 467.622C839.757 430.459 848.858 399.009 867.061 373.27C885.264 347.531 911.186 334.674 944.828 334.7C979.98 334.7 1006.47 348.261 1024.29 375.382C1042.11 402.503 1051.03 433.889 1051.04 469.54C1051.04 504.71 1041.81 535.598 1023.36 562.205C1004.9 588.811 979.102 602.105 945.956 602.086H945.975ZM946.534 571.953C968.073 571.953 984.161 562.68 994.798 544.135C1005.44 525.589 1010.75 501.901 1010.75 473.07C1010.75 442.214 1005.37 416.336 994.606 395.438C983.839 374.54 967.067 364.074 944.288 364.042C900.972 364.042 879.315 398.254 879.315 466.677C879.302 536.867 901.702 571.96 946.515 571.953H946.534Z" fill="#3F3D56"/>
<path d="M658.606 344.834C625.71 344.834 599.785 331.775 580.83 305.657C561.875 279.539 552.398 247.898 552.398 210.736C552.398 173.324 561.564 141.748 579.895 116.009C598.226 90.2697 624.084 77.413 657.469 77.4388C692.872 77.4388 719.546 90.9993 737.492 118.12C755.437 145.241 764.413 176.631 764.42 212.289C764.42 247.69 755.132 278.635 736.556 305.127C717.981 331.618 691.997 344.854 658.606 344.834ZM659.571 315.454C681.212 315.454 697.387 306.02 708.095 287.153C718.803 268.286 724.158 244.501 724.158 215.799C724.158 183.85 718.678 157.69 707.719 137.319C696.76 116.947 679.952 106.758 657.295 106.752C614.231 106.752 592.699 140.963 592.699 209.386C592.699 280.104 614.983 315.46 659.551 315.454H659.571ZM670.407 596.811H622.828L934.319 82.6746H981.002L670.407 596.811ZM945.975 602.086C912.584 602.086 886.552 588.908 867.88 562.552C849.208 536.196 839.834 504.552 839.757 467.622C839.757 430.459 848.858 399.009 867.061 373.27C885.264 347.531 911.186 334.674 944.828 334.7C979.98 334.7 1006.47 348.261 1024.29 375.382C1042.11 402.503 1051.03 433.889 1051.04 469.54C1051.04 504.71 1041.81 535.598 1023.36 562.205C1004.9 588.811 979.102 602.105 945.956 602.086H945.975ZM946.534 571.953C968.073 571.953 984.161 562.68 994.798 544.135C1005.44 525.589 1010.75 501.901 1010.75 473.07C1010.75 442.214 1005.37 416.336 994.606 395.438C983.839 374.54 967.067 364.074 944.288 364.042C900.972 364.042 879.315 398.254 879.315 466.677C879.302 536.867 901.702 571.96 946.515 571.953H946.534Z" fill="#3F3D56"/>
<path opacity="0.15" d="M658.606 344.834C625.71 344.834 599.785 331.775 580.83 305.657C561.875 279.539 552.398 247.898 552.398 210.736C552.398 173.324 561.564 141.748 579.895 116.009C598.226 90.2697 624.084 77.413 657.469 77.4388C692.872 77.4388 719.546 90.9993 737.492 118.12C755.437 145.241 764.413 176.631 764.42 212.289C764.42 247.69 755.132 278.635 736.556 305.127C717.981 331.618 691.997 344.854 658.606 344.834ZM659.571 315.454C681.212 315.454 697.387 306.02 708.095 287.153C718.803 268.286 724.158 244.501 724.158 215.799C724.158 183.85 718.678 157.69 707.719 137.319C696.76 116.947 679.952 106.758 657.295 106.752C614.231 106.752 592.699 140.963 592.699 209.386C592.699 280.104 614.983 315.46 659.551 315.454H659.571ZM670.407 596.811H622.828L934.319 82.6746H981.002L670.407 596.811ZM945.975 602.086C912.584 602.086 886.552 588.908 867.88 562.552C849.208 536.196 839.834 504.552 839.757 467.622C839.757 430.459 848.858 399.009 867.061 373.27C885.264 347.531 911.186 334.674 944.828 334.7C979.98 334.7 1006.47 348.261 1024.29 375.382C1042.11 402.503 1051.03 433.889 1051.04 469.54C1051.04 504.71 1041.81 535.598 1023.36 562.205C1004.9 588.811 979.102 602.105 945.956 602.086H945.975ZM946.534 571.953C968.073 571.953 984.161 562.68 994.798 544.135C1005.44 525.589 1010.75 501.901 1010.75 473.07C1010.75 442.214 1005.37 416.336 994.606 395.438C983.839 374.54 967.067 364.074 944.288 364.042C900.972 364.042 879.315 398.254 879.315 466.677C879.302 536.867 901.702 571.96 946.515 571.953H946.534Z" fill="black"/>
<path d="M628.718 344.834C595.822 344.834 569.897 331.775 550.942 305.657C531.987 279.539 522.51 247.898 522.51 210.736C522.51 173.324 531.676 141.748 550.007 116.009C568.338 90.2697 594.196 77.413 627.581 77.4388C662.984 77.4388 689.658 90.9993 707.604 118.12C725.549 145.241 734.525 176.631 734.532 212.289C734.532 247.69 725.244 278.635 706.668 305.127C688.093 331.618 662.11 344.854 628.718 344.834ZM629.683 315.454C651.324 315.454 667.499 306.02 678.207 287.153C688.916 268.286 694.27 244.501 694.27 215.799C694.27 183.85 688.79 157.69 677.831 137.319C666.872 116.947 650.064 106.758 627.407 106.752C584.343 106.752 562.811 140.963 562.811 209.386C562.811 280.104 585.095 315.46 629.663 315.454H629.683ZM640.519 596.811H592.94L904.431 82.6746H951.114L640.519 596.811ZM916.087 602.086C882.696 602.086 856.664 588.908 837.992 562.552C819.32 536.196 809.946 504.552 809.869 467.622C809.869 430.459 818.97 399.009 837.173 373.27C855.376 347.531 881.298 334.674 914.94 334.7C950.092 334.7 976.58 348.261 994.403 375.382C1012.23 402.503 1021.14 433.889 1021.15 469.54C1021.15 504.71 1011.92 535.598 993.468 562.205C975.015 588.811 949.214 602.105 916.068 602.086H916.087ZM916.646 571.953C938.185 571.953 954.273 562.68 964.91 544.135C975.548 525.589 980.867 501.901 980.867 473.07C980.867 442.214 975.484 416.336 964.718 395.438C953.951 374.539 937.172 364.074 914.38 364.042C871.065 364.042 849.408 398.254 849.408 466.677C849.408 536.867 871.814 571.96 916.627 571.953H916.646Z" fill="#3F3D56"/>
<path d="M732.806 609.713C736.778 602.346 732.266 593.321 727.079 586.745C721.892 580.169 715.567 573.342 715.702 564.962C715.895 552.938 728.66 545.832 738.841 539.448C746.413 534.718 753.398 529.105 759.647 522.728C762.265 520.272 764.428 517.373 766.039 514.166C768.151 509.46 768.083 504.109 767.968 498.96C767.524 481.783 766.676 464.632 765.422 447.507" stroke="#3F3D56" stroke-width="4" stroke-miterlimit="10"/>
<path d="M784.821 446.562C784.676 443.42 783.742 440.365 782.106 437.679C780.47 434.993 778.184 432.762 775.459 431.192L771.255 439.504L771.381 429.437C769.376 428.851 767.287 428.6 765.201 428.695C761.494 428.868 757.922 430.138 754.937 432.342C751.951 434.545 749.686 437.585 748.428 441.077C747.17 444.568 746.976 448.354 747.869 451.956C748.762 455.558 750.704 458.814 753.447 461.313C756.191 463.811 759.614 465.44 763.283 465.993C766.952 466.546 770.703 465.999 774.061 464.42C777.419 462.841 780.234 460.302 782.149 457.123C784.064 453.944 784.994 450.269 784.821 446.562V446.562Z" fill="#FF6347"/>
<path d="M751.365 573.592C749.397 577.418 746.173 580.45 742.234 582.181C738.296 583.911 733.882 584.235 729.733 583.097C725.584 581.959 721.953 579.43 719.448 575.932C716.942 572.434 715.716 568.182 715.973 563.887C716.231 559.592 717.957 555.517 720.862 552.344C723.768 549.171 727.676 547.093 731.931 546.46C736.186 545.826 740.529 546.675 744.233 548.864C747.936 551.053 750.774 554.449 752.272 558.483L740.548 568.019L753.467 565.011C753.462 567.998 752.741 570.941 751.365 573.592V573.592Z" fill="#FF6347"/>
<path d="M742.1 537.134C739.639 537.249 737.179 536.879 734.861 536.043C732.543 535.208 730.412 533.924 728.59 532.265C726.768 530.605 725.291 528.604 724.242 526.373C723.194 524.143 722.595 521.728 722.48 519.267C722.334 516.327 722.889 513.396 724.1 510.714C725.221 508.207 726.877 505.977 728.953 504.179C731.028 502.382 733.472 501.061 736.113 500.31L736.007 508.023L740.259 499.615C745.23 499.383 750.089 501.134 753.769 504.485C757.448 507.836 759.646 512.511 759.879 517.483C760.111 522.454 758.36 527.315 755.009 530.994C751.659 534.674 746.984 536.872 742.013 537.105L742.1 537.134Z" fill="#FF6347"/>
<path d="M787.646 506.828C785.155 506.993 782.657 506.66 780.296 505.848C777.936 505.036 775.761 503.762 773.899 502.099C772.038 500.437 770.526 498.419 769.453 496.165C768.38 493.912 767.767 491.466 767.651 488.973C767.534 486.479 767.916 483.987 768.773 481.643C769.631 479.299 770.948 477.149 772.646 475.32C774.345 473.491 776.391 472.019 778.665 470.99C780.939 469.961 783.396 469.396 785.891 469.328C789.397 469.157 792.88 469.983 795.937 471.71L792.62 480.793L799.446 474.246C803.11 477.586 805.298 482.243 805.53 487.196C805.616 488.933 805.453 490.673 805.048 492.364C804.115 496.34 801.911 499.903 798.771 502.513C795.63 505.123 791.724 506.638 787.646 506.828V506.828Z" fill="#FF6347"/>
<path opacity="0.1" d="M782.295 451.567C777.966 452.039 773.762 453.389 769.414 453.659C765.066 453.929 760.293 452.888 757.545 449.503C756.061 447.69 755.328 445.386 754.075 443.4C752.891 441.55 751.268 440.023 749.35 438.954C748.146 441.333 747.462 443.941 747.345 446.604C747.227 449.268 747.678 451.925 748.668 454.401C749.658 456.876 751.165 459.112 753.086 460.96C755.008 462.807 757.302 464.224 759.814 465.116C762.326 466.007 764.999 466.353 767.656 466.131C770.312 465.908 772.891 465.121 775.219 463.824C777.548 462.526 779.574 460.748 781.161 458.606C782.748 456.464 783.861 454.008 784.425 451.403C783.712 451.441 783.008 451.49 782.295 451.567Z" fill="black"/>
<path opacity="0.1" d="M787.646 506.828C784.412 506.975 781.196 506.284 778.308 504.823C775.421 503.361 772.96 501.177 771.164 498.484C769.369 495.791 768.3 492.68 768.061 489.452C767.821 486.224 768.42 482.989 769.799 480.06C771.286 481.068 772.566 482.351 773.569 483.84C774.909 485.855 775.719 488.189 777.291 490.04C780.183 493.483 785.206 494.601 789.728 494.399C794.25 494.196 798.627 492.904 803.139 492.47C803.766 492.412 804.402 492.374 805.067 492.354C804.135 496.335 801.929 499.903 798.785 502.515C795.64 505.127 791.729 506.642 787.646 506.828V506.828Z" fill="black"/>
<path opacity="0.1" d="M742.1 537.134C739.639 537.249 737.179 536.879 734.861 536.043C732.543 535.208 730.412 533.924 728.59 532.265C726.768 530.605 725.291 528.604 724.242 526.373C723.194 524.143 722.595 521.728 722.48 519.266C722.334 516.327 722.889 513.396 724.1 510.714C725.647 511.744 726.99 513.052 728.062 514.571C729.518 516.624 730.434 518.997 732.141 520.896C735.303 524.416 740.625 525.659 745.417 525.544C750.209 525.428 754.537 524.31 759.156 523.953C758.011 527.636 755.76 530.877 752.708 533.236C749.656 535.594 745.953 536.955 742.1 537.134V537.134Z" fill="black"/>
<path opacity="0.1" d="M751.365 573.592C749.182 577.883 745.433 581.171 740.894 582.775C736.355 584.379 731.373 584.177 726.979 582.21C722.585 580.243 719.115 576.662 717.287 572.208C715.459 567.754 715.413 562.767 717.158 558.28C718.703 559.297 720.09 560.534 721.275 561.954C723.059 564.133 724.235 566.601 726.298 568.626C730.155 572.387 736.325 573.939 741.84 574.084C745.022 574.11 748.203 573.946 751.365 573.592V573.592Z" fill="black"/>
<path d="M1023.01 608.749C1026.98 601.382 1022.47 592.356 1017.28 585.78C1012.09 579.204 1005.77 572.377 1005.91 563.998C1006.1 551.974 1018.86 544.867 1029.04 538.484C1036.62 533.753 1043.6 528.141 1049.85 521.764C1052.47 519.308 1054.63 516.409 1056.24 513.201C1058.35 508.496 1058.29 503.144 1058.17 497.995C1057.73 480.819 1056.88 463.668 1055.63 446.543" stroke="#3F3D56" stroke-width="4" stroke-miterlimit="10"/>
<path d="M1075.02 445.598C1074.88 442.456 1073.95 439.401 1072.31 436.715C1070.67 434.029 1068.39 431.798 1065.66 430.228L1061.46 438.54L1061.58 428.473C1059.58 427.887 1057.49 427.636 1055.4 427.731C1051.7 427.904 1048.13 429.173 1045.14 431.377C1042.15 433.581 1039.89 436.621 1038.63 440.112C1037.37 443.604 1037.18 447.39 1038.07 450.992C1038.97 454.594 1040.91 457.85 1043.65 460.348C1046.39 462.847 1049.82 464.476 1053.49 465.029C1057.16 465.582 1060.91 465.035 1064.26 463.456C1067.62 461.877 1070.44 459.338 1072.35 456.159C1074.27 452.98 1075.2 449.305 1075.02 445.598V445.598Z" fill="#FF6347"/>
<path d="M1041.57 572.628C1039.6 576.453 1036.38 579.486 1032.44 581.216C1028.5 582.947 1024.08 583.27 1019.94 582.133C1015.79 580.995 1012.16 578.465 1009.65 574.968C1007.15 571.47 1005.92 567.217 1006.18 562.923C1006.43 558.628 1008.16 554.552 1011.07 551.379C1013.97 548.206 1017.88 546.129 1022.13 545.495C1026.39 544.862 1030.73 545.711 1034.44 547.9C1038.14 550.089 1040.98 553.485 1042.47 557.518L1030.75 567.055L1043.67 564.046C1043.66 567.034 1042.94 569.976 1041.57 572.628V572.628Z" fill="#FF6347"/>
<path d="M1032.3 536.17C1029.84 536.285 1027.38 535.915 1025.06 535.079C1022.75 534.244 1020.61 532.96 1018.79 531.3C1016.97 529.641 1015.49 527.639 1014.45 525.409C1013.4 523.179 1012.8 520.764 1012.68 518.302C1012.54 515.363 1013.09 512.432 1014.3 509.749C1015.42 507.243 1017.08 505.012 1019.16 503.215C1021.23 501.417 1023.68 500.096 1026.32 499.345L1026.21 507.059L1030.46 498.651H1030.51C1032.97 498.536 1035.43 498.906 1037.75 499.742C1040.07 500.578 1042.2 501.862 1044.02 503.521C1045.84 505.18 1047.32 507.182 1048.37 509.412C1049.42 511.642 1050.01 514.057 1050.13 516.518C1050.24 518.98 1049.87 521.44 1049.04 523.759C1048.2 526.077 1046.92 528.208 1045.26 530.03C1043.6 531.852 1041.6 533.33 1039.37 534.378C1037.14 535.427 1034.73 536.026 1032.26 536.141L1032.3 536.17Z" fill="#FF6347"/>
<path d="M1077.85 505.863C1075.36 506.029 1072.86 505.696 1070.5 504.884C1068.14 504.072 1065.96 502.797 1064.1 501.135C1062.24 499.472 1060.73 497.455 1059.66 495.201C1058.58 492.947 1057.97 490.502 1057.85 488.008C1057.74 485.515 1058.12 483.023 1058.98 480.679C1059.83 478.334 1061.15 476.185 1062.85 474.356C1064.55 472.526 1066.59 471.054 1068.87 470.026C1071.14 468.997 1073.6 468.432 1076.09 468.364C1079.6 468.193 1083.08 469.019 1086.14 470.746L1082.82 479.829L1089.65 473.281C1093.31 476.621 1095.5 481.279 1095.73 486.231C1095.82 487.968 1095.66 489.709 1095.25 491.4C1094.32 495.375 1092.11 498.939 1088.97 501.549C1085.83 504.159 1081.93 505.674 1077.85 505.863V505.863Z" fill="#FF6347"/>
<path opacity="0.1" d="M1072.5 450.603C1068.17 451.075 1063.97 452.425 1059.62 452.695C1055.27 452.965 1050.5 451.924 1047.75 448.539C1046.26 446.726 1045.53 444.422 1044.28 442.435C1043.09 440.586 1041.47 439.059 1039.55 437.99C1038.35 440.369 1037.67 442.976 1037.55 445.64C1037.43 448.303 1037.88 450.961 1038.87 453.437C1039.86 455.912 1041.37 458.148 1043.29 459.996C1045.21 461.843 1047.5 463.26 1050.02 464.152C1052.53 465.043 1055.2 465.389 1057.86 465.166C1060.52 464.944 1063.09 464.157 1065.42 462.86C1067.75 461.562 1069.78 459.783 1071.36 457.642C1072.95 455.5 1074.06 453.044 1074.63 450.439C1073.91 450.477 1073.21 450.525 1072.5 450.603Z" fill="black"/>
<path opacity="0.1" d="M1077.85 505.863C1074.62 506.011 1071.4 505.32 1068.51 503.858C1065.62 502.396 1063.16 500.213 1061.37 497.52C1059.57 494.827 1058.5 491.715 1058.26 488.487C1058.02 485.259 1058.62 482.024 1060 479.096C1061.49 480.104 1062.77 481.387 1063.77 482.876C1065.11 484.891 1065.92 487.225 1067.49 489.076C1070.39 492.518 1075.41 493.637 1079.93 493.434C1084.45 493.232 1088.83 491.94 1093.34 491.506C1093.97 491.448 1094.61 491.409 1095.27 491.39C1094.34 495.371 1092.13 498.938 1088.99 501.551C1085.84 504.163 1081.93 505.677 1077.85 505.863V505.863Z" fill="black"/>
<path opacity="0.1" d="M1032.3 536.17C1029.84 536.285 1027.38 535.915 1025.06 535.079C1022.75 534.244 1020.61 532.96 1018.79 531.301C1016.97 529.641 1015.49 527.639 1014.45 525.409C1013.4 523.179 1012.8 520.764 1012.68 518.302C1012.54 515.363 1013.09 512.432 1014.3 509.75C1015.85 510.78 1017.19 512.088 1018.27 513.607C1019.72 515.66 1020.64 518.032 1022.34 519.932C1025.51 523.451 1030.83 524.695 1035.62 524.58C1040.27 524.483 1044.74 523.345 1049.36 522.989C1048.21 526.672 1045.96 529.913 1042.91 532.272C1039.86 534.63 1036.16 535.991 1032.3 536.17V536.17Z" fill="black"/>
<path opacity="0.1" d="M1041.57 572.628C1039.39 576.919 1035.64 580.207 1031.1 581.811C1026.56 583.415 1021.58 583.213 1017.18 581.246C1012.79 579.279 1009.32 575.698 1007.49 571.244C1005.66 566.79 1005.62 561.803 1007.36 557.316C1008.91 558.332 1010.29 559.57 1011.48 560.99C1013.26 563.169 1014.44 565.637 1016.5 567.662C1020.36 571.423 1026.53 572.975 1032.04 573.12C1035.22 573.146 1038.41 572.982 1041.57 572.628V572.628Z" fill="black"/>
<path d="M105.987 596.214C102.015 588.847 106.527 579.821 111.714 573.245C116.901 566.669 123.225 559.842 123.09 551.463C122.898 539.439 110.133 532.332 99.9513 525.949C92.3793 521.218 85.3952 515.605 79.1454 509.229C76.5282 506.772 74.3644 503.874 72.7532 500.666C70.6418 495.961 70.7093 490.609 70.825 485.46C71.2685 468.284 72.1169 451.133 73.3703 434.008" stroke="#3F3D56" stroke-width="4" stroke-miterlimit="10"/>
<path d="M53.972 433.063C54.117 429.921 55.0506 426.866 56.6867 424.18C58.3228 421.494 60.6087 419.263 63.3337 417.693L67.5373 426.005L67.412 415.938C69.4171 415.352 71.5052 415.101 73.592 415.195C77.2986 415.369 80.8705 416.638 83.8559 418.842C86.8413 421.046 89.1062 424.086 90.3643 427.577C91.6223 431.069 91.817 434.855 90.9236 438.457C90.0302 442.059 88.089 445.315 85.3454 447.813C82.6017 450.312 79.1789 451.941 75.5096 452.494C71.8404 453.047 68.0896 452.499 64.7315 450.92C61.3734 449.342 58.5588 446.802 56.6436 443.624C54.7285 440.445 53.7987 436.77 53.972 433.063V433.063Z" fill="#FF6347"/>
<path d="M87.4272 560.093C89.3959 563.918 92.6198 566.951 96.5584 568.681C100.497 570.412 104.911 570.735 109.06 569.598C113.208 568.46 116.84 565.93 119.345 562.433C121.85 558.935 123.077 554.682 122.82 550.388C122.562 546.093 120.836 542.017 117.93 538.844C115.025 535.671 111.117 533.594 106.862 532.96C102.607 532.327 98.2636 533.176 94.5601 535.365C90.8566 537.554 88.0182 540.95 86.521 544.983L98.2448 554.52L85.3254 551.511C85.3308 554.498 86.0515 557.441 87.4272 560.093V560.093Z" fill="#FF6347"/>
<path d="M96.6925 523.635C99.1539 523.75 101.614 523.379 103.932 522.544C106.25 521.708 108.381 520.424 110.203 518.765C112.025 517.106 113.502 515.104 114.55 512.874C115.599 510.644 116.198 508.229 116.313 505.767C116.459 502.828 115.903 499.896 114.693 497.214C113.572 494.708 111.916 492.477 109.84 490.68C107.765 488.882 105.321 487.561 102.68 486.81L102.786 494.524L98.534 486.116C93.5631 485.883 88.7034 487.635 85.024 490.986C81.3445 494.336 79.1467 499.012 78.914 503.983C78.6813 508.955 80.4328 513.815 83.7832 517.495C87.1336 521.175 91.8084 523.373 96.7793 523.606L96.6925 523.635Z" fill="#FF6347"/>
<path d="M51.1471 493.328C53.6376 493.494 56.1361 493.161 58.4963 492.349C60.8566 491.537 63.0313 490.262 64.8931 488.6C66.755 486.937 68.2666 484.92 69.3396 482.666C70.4125 480.412 71.0253 477.967 71.1419 475.473C71.2586 472.98 70.8769 470.488 70.0191 468.144C69.1613 465.799 67.8447 463.65 66.1462 461.821C64.4478 459.991 62.4016 458.519 60.1275 457.49C57.8533 456.462 55.3968 455.897 52.9018 455.829C49.4115 455.667 45.9464 456.493 42.9038 458.21L46.2204 467.294L39.3461 460.775C35.6894 464.108 33.5019 468.754 33.2625 473.696C33.1771 475.433 33.3394 477.173 33.7445 478.865C34.6776 482.84 36.8814 486.403 40.0219 489.014C43.1623 491.624 47.0681 493.138 51.1471 493.328Z" fill="#FF6347"/>
<path opacity="0.1" d="M56.498 438.067C60.827 438.54 65.0306 439.89 69.3788 440.16C73.727 440.43 78.4995 439.388 81.2472 436.004C82.732 434.191 83.4647 431.886 84.7181 429.9C85.9018 428.051 87.5248 426.524 89.4423 425.455C90.6467 427.833 91.3304 430.441 91.448 433.105C91.5656 435.768 91.1144 438.426 90.1243 440.901C89.1343 443.377 87.6282 445.613 85.7064 447.46C83.7846 449.308 81.4912 450.725 78.9789 451.616C76.4667 452.508 73.7934 452.854 71.1369 452.631C68.4805 452.408 65.9021 451.622 63.5734 450.324C61.2446 449.027 59.2191 447.248 57.6317 445.106C56.0443 442.964 54.9314 440.509 54.3673 437.903C55.0808 437.942 55.7846 437.99 56.498 438.067Z" fill="black"/>
<path opacity="0.1" d="M51.147 493.328C54.3802 493.476 57.5965 492.785 60.4841 491.323C63.3717 489.861 65.8326 487.678 67.6281 484.985C69.4236 482.292 70.4928 479.18 70.7319 475.952C70.9711 472.724 70.3721 469.489 68.9931 466.561C67.5066 467.568 66.227 468.851 65.2233 470.341C63.8832 472.356 63.0733 474.689 61.5018 476.541C58.6094 479.983 53.5863 481.102 49.0645 480.899C44.5428 480.697 40.1656 479.405 35.6535 478.971C35.0268 478.913 34.3905 478.874 33.7252 478.855C34.6574 482.836 36.8633 486.403 40.0078 489.015C43.1523 491.628 47.0635 493.142 51.147 493.328V493.328Z" fill="black"/>
<path opacity="0.1" d="M96.6925 523.634C99.1539 523.75 101.614 523.379 103.932 522.544C106.25 521.708 108.381 520.424 110.203 518.765C112.025 517.106 113.502 515.104 114.55 512.874C115.599 510.644 116.198 508.229 116.313 505.767C116.459 502.828 115.903 499.896 114.693 497.214C113.146 498.245 111.802 499.552 110.73 501.071C109.274 503.125 108.358 505.497 106.652 507.397C103.49 510.916 98.1677 512.16 93.3759 512.044C88.7288 511.948 84.2553 510.81 79.6371 510.453C80.7818 514.136 83.033 517.378 86.0846 519.736C89.1362 522.094 92.8401 523.456 96.6925 523.634V523.634Z" fill="black"/>
<path opacity="0.1" d="M87.4272 560.093C89.6105 564.384 93.3594 567.672 97.8985 569.276C102.438 570.88 107.42 570.677 111.814 568.71C116.208 566.743 119.678 563.162 121.506 558.708C123.334 554.254 123.38 549.268 121.635 544.781C120.09 545.797 118.703 547.035 117.518 548.454C115.734 550.634 114.558 553.102 112.495 555.127C108.638 558.887 102.468 560.44 96.9528 560.585C93.7707 560.611 90.5898 560.446 87.4272 560.093V560.093Z" fill="black"/>
<path d="M649.341 505.854C649.359 503.516 648.83 501.207 647.795 499.11C646.76 497.014 645.249 495.189 643.383 493.781C643.151 484.939 636.846 477.717 628.738 476.599C628.111 473.594 626.705 470.808 624.661 468.52C622.616 466.231 620.006 464.521 617.091 463.562V463.562C616.382 463.337 615.657 463.166 614.922 463.051H614.71L614.334 463.003H614.015H613.697H613.283H613.032H612.348C604.075 463.003 597.191 469.328 595.774 477.669C590.423 476.435 585.516 478.035 584.638 481.42C584.412 482.317 584.462 483.261 584.783 484.129C585.689 486.752 588.64 489.259 592.641 490.503L593.161 490.657C593.422 490.734 593.682 490.792 593.942 490.85H594.116C592.645 493.987 592.436 497.569 593.533 500.856C594.629 504.142 596.947 506.881 600.007 508.506C599.886 508.572 599.77 508.646 599.66 508.727C599.165 509.181 598.771 509.733 598.503 510.347C597.536 512.044 596.785 513.855 596.266 515.737C595.88 517.348 595.813 519.035 595.302 520.626C594.424 523.519 592.168 526.055 591.908 529.131C591.792 530.5 592.014 532.11 591.04 533.046C590.798 533.254 590.54 533.445 590.269 533.615C589.586 534.082 589.008 534.686 588.572 535.389C588.288 535.97 587.906 536.498 587.444 536.951C586.567 537.616 585.121 537.549 584.687 538.571C584.253 539.593 585.371 540.798 585.111 541.917C584.899 542.823 583.906 543.238 583.183 543.845C582.374 544.723 581.809 545.796 581.544 546.96C580.103 547.238 578.619 547.194 577.198 546.832C575.776 546.471 574.452 545.8 573.32 544.867C573.708 545.861 573.992 546.891 574.168 547.943C573.021 546.719 571.131 546.362 569.733 545.725C567.93 544.899 566.32 543.704 565.009 542.216L567.535 541.868L556.351 524.898L553.054 524.223L556.013 529.902C555.771 530.018 555.559 530.188 555.392 530.399C555.225 530.609 555.108 530.855 555.049 531.117C554.89 531.747 554.851 532.401 554.934 533.046C555.09 534.568 555.345 536.078 555.695 537.568L556.553 541.56C556.626 541.934 556.719 542.305 556.833 542.669C555.715 542.628 554.597 542.755 553.516 543.045C551.3 542.225 548.991 541.678 546.642 541.415C546.125 541.325 545.595 541.351 545.09 541.492C544.517 541.757 544.019 542.161 543.644 542.669C541.715 544.898 540.004 547.307 538.534 549.862C532.527 560.315 524.506 569.436 516.995 578.886C511.808 580.998 506.583 583.003 501.347 584.99L490.096 589.281C487.85 590.139 485.516 591.016 483.125 590.862C482.045 590.794 480.734 590.63 480.127 591.547C479.831 592.001 479.601 592.494 479.442 593.012C479.047 593.012 478.652 593.109 478.285 593.128H478.218C477.504 591.354 476.887 589.454 475.518 588.162C475.243 588.204 474.982 588.315 474.76 588.483C474.538 588.651 474.361 588.872 474.246 589.126C473.976 589.628 473.812 590.177 473.503 590.64C472.896 591.527 471.845 591.961 471.093 592.713C470.341 593.465 469.868 594.642 469.059 595.375C467.925 596.199 466.596 596.714 465.202 596.869C463.115 597.361 461.102 598.126 459.215 599.145C458.519 599.573 457.775 599.916 456.997 600.167C456.143 600.331 455.268 600.36 454.404 600.254L448.446 599.82C447.915 599.75 447.377 599.773 446.855 599.887C446.241 600.112 445.719 600.534 445.37 601.087C445.021 601.64 444.865 602.293 444.926 602.944C444.999 603.59 445.203 604.214 445.527 604.778C445.85 605.342 446.286 605.834 446.807 606.222C447.841 606.981 448.985 607.576 450.2 607.987C455.378 609.993 460.716 611.557 466.157 612.664V613.869C469.928 615.769 474.092 616.759 478.314 616.762C478.625 616.786 478.938 616.729 479.221 616.598C479.611 616.305 479.882 615.88 479.982 615.402C481.246 611.621 482.046 607.699 482.364 603.725C483.108 603.677 483.837 603.491 484.514 603.175C486.567 602.616 488.601 604.024 490.713 604.255C493.316 604.535 495.736 603.021 498.195 602.086C498.551 601.951 498.908 601.835 499.265 601.719C498.563 602.627 497.735 603.429 496.806 604.101C495.784 604.834 494.637 605.374 493.634 606.136C492.801 606.897 491.908 607.59 490.964 608.209C490.298 608.519 489.612 608.783 488.91 608.999C487.893 609.371 486.922 609.859 486.018 610.455C485.208 610.933 484.521 611.593 484.012 612.384C483.756 612.753 483.599 613.181 483.555 613.629C483.511 614.076 483.582 614.527 483.762 614.939C483.942 615.35 484.224 615.709 484.582 615.981C484.939 616.253 485.361 616.429 485.806 616.492C486.611 616.635 487.433 616.657 488.245 616.559C491.465 616.318 494.676 616.019 497.886 615.73C499.245 615.639 500.596 615.446 501.926 615.151C502.63 614.978 503.324 614.746 504.028 614.563C505.228 614.246 506.46 614.062 507.701 614.013C508.061 613.985 508.424 614.021 508.771 614.12C509.523 614.361 510.053 615.084 510.815 615.277C511.31 615.325 511.808 615.255 512.271 615.074C514.621 614.564 517.02 614.308 519.425 614.312C520.476 614.255 521.71 614.052 522.201 613.078C522.799 611.873 521.796 610.523 521.401 609.221C521.2 608.394 521.09 607.546 521.073 606.695C520.89 604.594 520.287 602.551 519.299 600.688C518.775 599.818 518.332 598.901 517.979 597.949C522.586 596.196 526.994 593.96 531.129 591.277C533.501 589.801 535.95 588.21 538.63 587.67C541.754 587.043 544.974 587.873 548.05 588.76C555.376 590.88 562.582 593.394 569.637 596.291C573.011 597.669 576.385 599.135 579.837 600.148C580.846 601.509 582.067 602.701 583.453 603.677C585.766 605.171 588.591 605.605 591.31 605.817C594.983 606.153 598.671 606.291 602.359 606.232C605.174 606.184 608.076 605.991 610.593 604.709C611.208 604.393 611.786 604.011 612.319 603.571C614.247 603.918 616.223 602.886 617.737 601.565C619.74 599.86 621.185 597.593 621.883 595.056C622.77 591.575 622.085 587.516 624.226 584.671C624.794 583.91 625.537 583.293 626.096 582.521C626.785 581.488 627.123 580.261 627.06 579.021L627.157 578.876C627.641 577.757 627.966 576.576 628.121 575.366C628.374 574.422 628.697 573.497 629.085 572.599C630.172 569.908 631.118 567.163 631.919 564.374C632.477 562.524 632.915 560.64 633.231 558.733C633.462 557.21 633.597 555.677 633.722 554.143C633.877 551.743 634.344 549.374 635.111 547.095C637.014 541.655 638.089 535.96 638.302 530.201C638.302 530.085 638.302 529.979 638.302 529.864C641.101 529.557 643.685 528.216 645.548 526.105C647.412 523.993 648.42 521.263 648.377 518.447C648.38 516.75 648.025 515.071 647.336 513.52C648.666 511.185 649.358 508.541 649.341 505.854V505.854ZM594.82 572.107C594.984 572.696 595.176 573.284 595.369 573.872C594.482 572.994 593.605 572.088 592.708 571.22C593.065 571.326 593.422 571.442 593.769 571.567C594.138 571.714 594.493 571.895 594.829 572.107H594.82ZM590.5 569.215C585.236 564.644 579.143 561.096 573.753 556.679C576.646 558.135 579.538 559.823 582.431 561.443C585.799 563.371 589.205 565.216 592.65 566.978C592.085 567.835 591.366 568.581 590.529 569.176L590.5 569.215ZM592.747 557.701L592.997 557.441C592.997 558.087 592.997 558.695 592.997 559.244C592.525 559.09 592.033 558.936 591.58 558.762C591.997 558.423 592.389 558.055 592.756 557.663L592.747 557.701ZM546.401 570.082C548.569 567.63 550.454 564.943 552.022 562.069C554.104 565.724 557.498 568.356 560.391 571.413C555.743 570.757 551.087 570.246 546.411 570.044L546.401 570.082Z" fill="url(#paint0_linear)"/>
<path d="M553.921 525.631L557.248 526.306L568.576 543.045L563.572 543.72L553.921 525.631Z" fill="#2F2E41"/>
<path d="M473.368 593.571C474.265 596.538 475.37 599.438 476.675 602.25C480.429 601.464 484.121 600.411 487.724 599.097C487.027 598.01 486.26 596.97 485.43 595.982C484.544 594.997 483.485 594.184 482.306 593.581C481.158 593.08 479.741 593.456 478.517 593.523C476.801 593.588 475.084 593.604 473.368 593.571Z" fill="#FBBEBE"/>
<path d="M482.325 598.046C480.455 597.457 479.307 595.567 478.546 593.745C477.784 591.923 477.167 589.936 475.721 588.596C475.445 588.639 475.185 588.75 474.963 588.918C474.741 589.086 474.564 589.307 474.448 589.56C474.168 590.042 474.005 590.592 473.686 591.055C473.089 591.923 472.028 592.347 471.266 593.089C470.505 593.832 470.032 594.96 469.213 595.702C468.076 596.52 466.748 597.031 465.356 597.187C463.255 597.664 461.225 598.416 459.321 599.424C458.616 599.833 457.865 600.157 457.084 600.389C456.223 600.553 455.342 600.582 454.471 600.475L448.465 600.042C447.931 599.975 447.389 600.001 446.864 600.119C446.252 600.332 445.73 600.744 445.38 601.29C445.031 601.835 444.874 602.482 444.936 603.127C445.016 603.77 445.228 604.389 445.56 604.945C445.892 605.501 446.336 605.982 446.864 606.357C447.909 607.104 449.059 607.689 450.277 608.093C455.511 610.061 460.895 611.599 466.378 612.692V613.878C470.189 615.765 474.381 616.754 478.632 616.771C478.963 616.8 479.295 616.744 479.597 616.607C479.987 616.321 480.261 615.903 480.368 615.431C481.809 611.218 482.65 606.823 482.865 602.375C482.976 601.25 482.891 600.115 482.614 599.019C482.286 597.939 483.405 598.393 482.364 597.968" fill="#2F2E41"/>
<path d="M597.481 575.405C579.673 576.485 562.087 571.259 544.251 570.7C542.037 570.565 539.815 570.707 537.637 571.124C535.366 571.733 533.168 572.586 531.081 573.669C521.527 578.115 511.635 581.798 501.752 585.481L490.414 589.705C488.139 590.544 485.796 591.402 483.376 591.257C482.296 591.19 480.975 591.026 480.358 591.932C478.517 594.661 479.394 598.682 480.609 601.748C481.004 602.713 481.669 603.821 482.73 603.937C483.48 603.886 484.215 603.7 484.899 603.388C486.962 602.838 489.026 604.226 491.147 604.448C493.779 604.728 496.218 603.233 498.696 602.317C502.803 600.803 507.296 600.852 511.615 600.128C518.866 598.923 525.576 595.558 531.862 591.72C534.253 590.264 536.683 588.702 539.421 588.172C542.573 587.555 545.823 588.365 548.917 589.242C556.296 591.331 563.559 593.806 570.678 596.657C574.383 598.267 578.182 599.652 582.055 600.803C590.494 603.026 599.422 602.506 607.546 599.318C610.439 598.19 613.485 596.204 613.649 593.128C613.745 591.373 612.386 589.83 611.48 588.307C610.892 587.342 610.313 586.378 609.677 585.462C606.611 580.988 602.889 575.077 597.481 575.405Z" fill="#2F2E41"/>
<path opacity="0.1" d="M597.481 575.405C579.673 576.485 562.087 571.259 544.251 570.7C542.037 570.565 539.815 570.707 537.637 571.124C535.366 571.733 533.168 572.586 531.081 573.669C521.527 578.115 511.635 581.798 501.752 585.481L490.414 589.705C488.139 590.544 485.796 591.402 483.376 591.257C482.296 591.19 480.975 591.026 480.358 591.932C478.517 594.661 479.394 598.682 480.609 601.748C481.004 602.713 481.669 603.821 482.73 603.937C483.48 603.886 484.215 603.7 484.899 603.388C486.962 602.838 489.026 604.226 491.147 604.448C493.779 604.728 496.218 603.233 498.696 602.317C502.803 600.803 507.296 600.852 511.615 600.128C518.866 598.923 525.576 595.558 531.862 591.72C534.253 590.264 536.683 588.702 539.421 588.172C542.573 587.555 545.823 588.365 548.917 589.242C556.296 591.331 563.559 593.806 570.678 596.657C574.383 598.267 578.182 599.652 582.055 600.803C590.494 603.026 599.422 602.506 607.546 599.318C610.439 598.19 613.485 596.204 613.649 593.128C613.745 591.373 612.386 589.83 611.48 588.307C610.892 587.342 610.313 586.378 609.677 585.462C606.611 580.988 602.889 575.077 597.481 575.405Z" fill="black"/>
<path d="M507.547 594.439C510.336 595.384 513.145 596.259 515.973 597.062C517.564 594.449 520.533 592.636 521.208 589.657C521.247 589.528 521.247 589.39 521.208 589.261C521.135 589.135 521.023 589.034 520.89 588.972C518.858 587.851 516.602 587.192 514.286 587.044C512.454 586.928 511.625 588.837 510.796 590.177C510.506 590.717 508.289 594.69 507.547 594.439Z" fill="#FBBEBE"/>
<path d="M511.471 592.53C510.638 592.391 509.844 592.081 509.138 591.617C508.433 591.154 507.831 590.549 507.373 589.84C506.978 589.155 506.563 588.229 505.773 588.278C504.982 588.326 504.712 589.194 504.548 589.917C504.014 592.618 503.243 595.267 502.244 597.833C501.236 600.407 499.53 602.648 497.317 604.303C496.286 605.017 495.138 605.557 494.126 606.309C493.282 607.062 492.38 607.745 491.427 608.353C490.755 608.66 490.062 608.918 489.354 609.125C488.315 609.488 487.322 609.97 486.394 610.561C485.581 611.038 484.89 611.698 484.379 612.49C484.132 612.892 483.987 613.348 483.957 613.818C483.927 614.289 484.012 614.76 484.205 615.19C484.413 615.539 484.692 615.841 485.024 616.075C485.357 616.309 485.735 616.471 486.133 616.549C486.946 616.684 487.774 616.704 488.592 616.607C491.841 616.366 495.081 616.077 498.32 615.788C499.691 615.703 501.055 615.516 502.398 615.228C503.112 615.055 503.806 614.823 504.51 614.64C505.725 614.331 506.969 614.15 508.222 614.1C508.585 614.073 508.95 614.109 509.301 614.206C510.053 614.447 510.584 615.171 511.355 615.344C511.852 615.396 512.354 615.33 512.821 615.151C515.192 614.649 517.609 614.397 520.032 614.399C521.093 614.341 522.346 614.139 522.828 613.184C523.436 611.998 522.433 610.668 522.028 609.395C521.828 608.58 521.715 607.746 521.691 606.907C521.508 604.835 520.901 602.823 519.907 600.996C519.078 599.473 517.979 597.795 518.528 596.175C518.824 595.669 519.011 595.108 519.078 594.526C518.943 591.913 512.936 592.877 511.471 592.53Z" fill="#2F2E41"/>
<path d="M570.784 546.844C567.63 545.452 565.102 542.941 563.688 539.795C563.399 539.12 563.148 538.417 562.869 537.732C561.93 535.469 560.478 533.455 558.626 531.85C558.428 531.632 558.185 531.459 557.914 531.345C557.642 531.23 557.349 531.175 557.055 531.185C556.77 531.269 556.513 531.428 556.309 531.645C556.106 531.862 555.964 532.129 555.898 532.419C555.733 533.048 555.69 533.702 555.773 534.347C555.937 535.844 556.195 537.328 556.544 538.793L557.412 542.727C557.521 543.331 557.702 543.92 557.951 544.482C558.323 545.142 558.813 545.727 559.398 546.208C560.188 546.94 560.988 547.644 561.798 548.329C562.245 548.733 562.733 549.089 563.254 549.39C564.11 549.795 565.024 550.062 565.963 550.18C569.502 550.836 573.098 551.781 576.077 554.037C576.077 554.037 576.077 551.405 576.01 551.145C575.973 550.382 575.712 549.647 575.258 549.033C574.139 547.828 572.211 547.471 570.784 546.844Z" fill="#FBBEBE"/>
<path opacity="0.1" d="M570.784 546.844C567.63 545.452 565.102 542.941 563.688 539.795C563.399 539.12 563.148 538.417 562.869 537.732C561.93 535.469 560.478 533.455 558.626 531.85C558.428 531.632 558.185 531.459 557.914 531.345C557.642 531.23 557.349 531.175 557.055 531.185C556.77 531.269 556.513 531.428 556.309 531.645C556.106 531.862 555.964 532.129 555.898 532.419C555.733 533.048 555.69 533.702 555.773 534.347C555.937 535.844 556.195 537.328 556.544 538.793L557.412 542.727C557.521 543.331 557.702 543.92 557.951 544.482C558.323 545.142 558.813 545.727 559.398 546.208C560.188 546.94 560.988 547.644 561.798 548.329C562.245 548.733 562.733 549.089 563.254 549.39C564.11 549.795 565.024 550.062 565.963 550.18C569.502 550.836 573.098 551.781 576.077 554.037C576.077 554.037 576.077 551.405 576.01 551.145C575.973 550.382 575.712 549.647 575.258 549.033C574.139 547.828 572.211 547.471 570.784 546.844Z" fill="black"/>
<path d="M607.035 516.759C609.426 516.759 611.364 514.808 611.364 512.401C611.364 509.994 609.426 508.043 607.035 508.043C604.644 508.043 602.706 509.994 602.706 512.401C602.706 514.808 604.644 516.759 607.035 516.759Z" fill="#2F2E41"/>
<path d="M604.355 509.769C603.192 509.504 601.973 509.679 600.932 510.261C600.432 510.703 600.034 511.249 599.766 511.861C598.792 513.526 598.034 515.308 597.51 517.165C597.124 518.756 597.056 520.414 596.545 521.986C595.658 524.879 593.383 527.337 593.123 530.355C593.007 531.705 593.229 533.296 592.245 534.212C592.001 534.417 591.74 534.601 591.464 534.762C590.78 535.222 590.198 535.82 589.758 536.517C589.463 537.143 589.055 537.709 588.553 538.185C587.666 538.841 586.21 538.773 585.776 539.786C585.342 540.798 586.461 541.975 586.2 543.074C585.988 543.971 584.986 544.385 584.272 545.002C583.459 545.863 582.89 546.925 582.623 548.078C581.175 548.351 579.685 548.307 578.255 547.949C576.826 547.591 575.491 546.928 574.342 546.005C575.547 548.985 575.576 552.273 575.624 555.484C575.763 556.511 575.489 557.551 574.862 558.376C578.314 558.454 581.669 559.341 585.034 560.141C586.473 560.623 588.03 560.623 589.469 560.141C590.238 559.727 590.927 559.178 591.503 558.521C593.335 556.66 595.254 554.664 595.697 552.07C595.814 550.611 595.84 549.146 595.774 547.683C595.951 545.877 596.323 544.096 596.883 542.37C597.851 538.787 598.497 535.124 598.811 531.426C599.014 529.141 600.98 527.308 602.022 525.264C603.95 521.407 605.975 517.406 606.129 513.086C606.264 511.678 605.782 509.952 604.355 509.769Z" fill="#2F2E41"/>
<path opacity="0.1" d="M604.355 509.769C603.192 509.504 601.973 509.679 600.932 510.261C600.432 510.703 600.034 511.249 599.766 511.861C598.792 513.526 598.034 515.308 597.51 517.165C597.124 518.756 597.056 520.414 596.545 521.986C595.658 524.879 593.383 527.337 593.123 530.355C593.007 531.705 593.229 533.296 592.245 534.212C592.001 534.417 591.74 534.601 591.464 534.762C590.78 535.222 590.198 535.82 589.758 536.517C589.463 537.143 589.055 537.709 588.553 538.185C587.666 538.841 586.21 538.773 585.776 539.786C585.342 540.798 586.461 541.975 586.2 543.074C585.988 543.971 584.986 544.385 584.272 545.002C583.459 545.863 582.89 546.925 582.623 548.078C581.175 548.351 579.685 548.307 578.255 547.949C576.826 547.591 575.491 546.928 574.342 546.005C575.547 548.985 575.576 552.273 575.624 555.484C575.763 556.511 575.489 557.551 574.862 558.376C578.314 558.454 581.669 559.341 585.034 560.141C586.473 560.623 588.03 560.623 589.469 560.141C590.238 559.727 590.927 559.178 591.503 558.521C593.335 556.66 595.254 554.664 595.697 552.07C595.814 550.611 595.84 549.146 595.774 547.683C595.951 545.877 596.323 544.096 596.883 542.37C597.851 538.787 598.497 535.124 598.811 531.426C599.014 529.141 600.98 527.308 602.022 525.264C603.95 521.407 605.975 517.406 606.129 513.086C606.264 511.678 605.782 509.952 604.355 509.769Z" fill="black"/>
<path d="M600.306 579.156C596.594 577.392 593.885 574.103 590.886 571.288C585.159 565.907 578.16 562.108 572.143 557.065C568.162 553.729 564.594 549.843 560.207 547.047C556.349 544.585 551.974 543.05 547.423 542.563C546.903 542.472 546.37 542.498 545.861 542.64C545.287 542.897 544.786 543.295 544.405 543.797C542.462 545.988 540.734 548.361 539.247 550.884C531.621 563.825 520.794 574.711 511.818 586.754C511.53 587.038 511.359 587.42 511.34 587.823C511.32 588.227 511.453 588.623 511.712 588.934L513.534 592.511C514.556 594.507 516.195 596.84 518.355 596.445C519.345 596.159 520.233 595.594 520.91 594.815L529.105 586.976L537.695 578.761C542.728 573.939 547.847 569.022 551.135 562.87C553.7 567.315 558.25 570.227 561.374 574.306C562.56 575.849 563.524 577.555 564.585 579.195C566.291 581.827 568.219 584.296 570.148 586.754L580.011 599.338C581.255 601.13 582.798 602.695 584.571 603.966C586.904 605.441 589.748 605.837 592.496 606.078C596.198 606.416 599.915 606.551 603.632 606.483C606.466 606.435 609.417 606.251 611.923 604.988C614.43 603.725 616.561 601.131 616.426 598.306C616.273 596.826 615.788 595.399 615.009 594.131C611.528 587.67 606.92 582.271 600.306 579.156Z" fill="#2F2E41"/>
<path d="M609.696 518.765C611.533 518.765 613.022 517.267 613.022 515.419C613.022 513.571 611.533 512.073 609.696 512.073C607.859 512.073 606.37 513.571 606.37 515.419C606.37 517.267 607.859 518.765 609.696 518.765Z" fill="#E8E8F0"/>
<path d="M608.963 512.902C609.715 514.399 609.847 516.131 609.33 517.724C608.816 519.29 608.096 520.782 607.189 522.159C606.409 523.582 605.475 524.914 604.403 526.132C609.542 526.383 614.526 524.367 619.058 521.918C622.712 519.99 626.356 517.531 628.304 513.857C627.724 513.995 627.122 514.011 626.536 513.903C625.95 513.795 625.393 513.566 624.9 513.23C623.92 512.547 623.04 511.729 622.288 510.8L619.713 507.908C619.105 507.273 618.572 506.571 618.123 505.815C617.559 504.789 617.32 503.615 617.438 502.45C616.413 503.523 615.268 504.474 614.025 505.285C612.184 506.49 610.169 507.358 608.308 508.544C607.652 508.968 606.196 509.653 606.572 510.472C606.948 511.292 608.443 511.977 608.963 512.902Z" fill="#FBBEBE"/>
<path opacity="0.1" d="M608.963 512.902C609.715 514.399 609.847 516.131 609.33 517.724C608.816 519.29 608.096 520.782 607.189 522.159C606.409 523.582 605.475 524.914 604.403 526.132C609.542 526.383 614.526 524.367 619.058 521.918C622.712 519.99 626.356 517.531 628.304 513.857C627.724 513.995 627.122 514.011 626.536 513.903C625.95 513.795 625.393 513.566 624.9 513.23C623.92 512.547 623.04 511.729 622.288 510.8L619.713 507.908C619.105 507.273 618.572 506.571 618.123 505.815C617.559 504.789 617.32 503.615 617.438 502.45C616.413 503.523 615.268 504.474 614.025 505.285C612.184 506.49 610.169 507.358 608.308 508.544C607.652 508.968 606.196 509.653 606.572 510.472C606.948 511.292 608.443 511.977 608.963 512.902Z" fill="black"/>
<path d="M609.031 513.404C608.511 514.139 608.232 515.016 608.232 515.916C608.232 516.816 608.511 517.693 609.031 518.428C609.176 518.611 609.725 519.758 609.995 519.768C610.222 519.749 610.433 519.642 610.583 519.469C611.748 518.252 612.836 516.964 613.842 515.612C614.858 514.243 616.327 513.279 617.988 512.893C620.003 512.575 621.941 513.645 623.705 514.667C624.463 515.044 625.123 515.592 625.633 516.268C626.005 516.938 626.225 517.682 626.279 518.447C626.786 523.044 626.979 527.67 626.858 532.294C626.951 535.627 626.732 538.962 626.202 542.254C625.874 543.951 625.383 545.61 625.151 547.326C624.982 548.837 624.915 550.358 624.949 551.878V558.242C624.906 559.408 624.99 560.575 625.199 561.722C625.597 563.092 626.064 564.44 626.597 565.763C627.067 567.337 627.389 568.951 627.561 570.584L628.429 577.17C628.709 579.253 628.911 581.519 627.648 583.187C627.089 583.948 626.337 584.546 625.72 585.298C623.551 588.056 624.274 592.058 623.31 595.481C622.596 597.993 621.137 600.229 619.125 601.893C617.592 603.195 615.606 604.226 613.62 603.822C610.95 603.32 609.339 600.533 608.607 597.901C607.874 595.269 607.643 592.395 606.032 590.187C604.741 588.365 602.745 587.227 600.942 585.925C599.139 584.623 597.365 582.955 596.97 580.757C596.796 579.792 596.902 578.828 596.806 577.864C596.662 576.635 596.191 575.468 595.441 574.484C594.692 573.5 593.691 572.735 592.544 572.271C591.175 571.741 589.478 571.548 588.688 570.343C590.651 569.11 592.081 567.187 592.699 564.953C593.297 562.751 593.621 560.484 593.663 558.203L594.125 550.547C594.328 547.124 594.424 543.73 595.928 540.654C596.603 539.284 597.442 537.992 598.136 536.633C599.066 534.725 599.859 532.753 600.508 530.732C601.597 527.598 602.697 524.454 603.67 521.282C604.06 519.746 604.643 518.265 605.406 516.875C606.302 515.429 607.488 513.693 609.031 513.404Z" fill="#E8E8F0"/>
<path d="M592.033 563.149L594.058 563.217L594.492 560.16C594.55 559.549 594.692 558.948 594.916 558.376C595.252 557.773 595.643 557.202 596.083 556.67C598.078 553.854 597.934 550.113 598.426 546.69C599.081 542.129 600.99 537.848 602.88 533.644L606.813 524.878C607.164 524.158 607.445 523.406 607.652 522.632C607.824 521.778 607.905 520.909 607.893 520.038C607.893 518.688 608.337 513.761 608.366 512.401C608.366 511.9 607.267 512.179 607.035 511.736C606.544 510.772 605.869 513.394 604.943 513.973C604.071 514.64 603.435 515.569 603.131 516.625C602.282 518.833 601.761 521.156 600.971 523.374C600.277 525.645 599.012 527.701 597.298 529.343C596.497 530.056 595.562 530.616 594.8 531.368C592.352 533.788 592.12 537.607 592.033 541.01C591.976 543.122 591.58 563.149 592.033 563.149Z" fill="#2F2E41"/>
<path d="M621.198 509.749C619.27 510.521 618.152 512.642 617.602 514.706C617.053 516.769 616.821 518.948 615.761 520.78C613.292 525.081 606.997 526.335 605.252 530.982C604.807 532.552 604.571 534.173 604.548 535.803C604.239 539.13 603.14 542.351 602.812 545.677C602.642 548.265 602.703 550.863 602.995 553.44L605.203 579.696C605.631 583.563 605.407 587.475 604.538 591.267C606.802 591.593 609.112 591.213 611.152 590.177C613.225 589.213 615.115 587.94 617.101 586.841C620.523 584.913 624.303 583.611 627.292 581.056C627.834 580.633 628.3 580.121 628.67 579.542C629.15 578.438 629.474 577.273 629.634 576.08C629.888 575.151 630.21 574.242 630.599 573.361C631.706 570.714 632.671 568.011 633.491 565.261C634.052 563.438 634.494 561.579 634.812 559.698C635.053 558.203 635.178 556.689 635.313 555.185C635.467 552.819 635.938 550.484 636.711 548.242C638.624 542.894 639.706 537.285 639.922 531.609C639.988 530.789 639.933 529.964 639.758 529.16C639.425 528.185 638.978 527.253 638.427 526.383C637.511 524.657 636.962 522.757 636.094 521.012C634.166 517.058 630.705 514.06 627.089 511.543C625.238 510.318 623.204 508.988 621.198 509.749Z" fill="#2F2E41"/>
<path d="M575.171 552.591C573.605 551.772 572.187 550.696 570.977 549.409C570.427 548.763 570.013 548.04 569.415 547.403C567.999 545.894 566.161 544.845 564.141 544.395C562.135 543.953 560.082 543.755 558.029 543.807C556.657 543.712 555.279 543.879 553.97 544.298C553.312 544.513 552.72 544.891 552.248 545.397C551.776 545.903 551.439 546.52 551.27 547.191C550.971 548.83 552.041 550.421 553.324 551.463C554.516 552.437 555.919 553.12 557.421 553.459C558.646 553.671 559.882 553.816 561.123 553.893C568.412 554.654 574.92 558.617 581.303 562.233C586.914 565.402 592.634 568.369 598.464 571.133C598.695 569.388 598.792 567.628 598.753 565.868C598.753 564.557 598.657 562.551 597.413 561.78C595.967 560.874 593.557 560.671 591.956 560.131C588.199 558.905 584.53 557.423 580.975 555.696C578.96 554.722 577.032 553.69 575.171 552.591Z" fill="#FBBEBE"/>
<path d="M607.035 511.408C614.208 511.408 620.022 505.558 620.022 498.342C620.022 491.127 614.208 485.277 607.035 485.277C599.863 485.277 594.048 491.127 594.048 498.342C594.048 505.558 599.863 511.408 607.035 511.408Z" fill="#FBBEBE"/>
<path d="M624.91 524.56C623.876 526.013 623.031 527.591 622.394 529.256C620.784 532.564 618.267 535.398 617.014 538.899C615.683 542.534 615.732 546.863 613.157 549.727C612.64 550.161 612.25 550.728 612.029 551.366C612.013 551.764 611.968 552.161 611.894 552.552C611.528 553.594 609.821 553.642 609.503 554.703C609.417 555.011 609.503 555.349 609.349 555.667C609.089 556.351 608.192 556.448 607.585 556.863C606.322 557.721 606.621 559.707 605.656 560.941C605.265 561.4 604.759 561.746 604.19 561.946C603.621 562.146 603.009 562.192 602.417 562.079C601.235 561.83 600.097 561.404 599.043 560.816C598.672 560.607 598.261 560.479 597.837 560.44C597.334 560.451 596.846 560.615 596.439 560.912C594.039 562.436 592.911 565.464 592.93 568.318C593.099 571.172 593.775 573.974 594.926 576.591C595.061 577.043 595.288 577.463 595.591 577.825C596.382 578.664 597.77 578.529 598.83 578.057C599.824 577.468 600.882 576.996 601.983 576.649C603.989 576.283 605.955 577.671 607.99 577.555C609.478 577.329 610.879 576.71 612.049 575.762C614.114 574.508 615.963 572.928 617.525 571.085C618.412 569.919 619.067 568.588 619.848 567.344C620.846 565.816 621.941 564.353 623.126 562.966L630.618 553.796C631.369 552.928 632.044 551.995 632.633 551.01C633.308 549.676 633.835 548.273 634.204 546.825C635.007 544.408 635.528 541.907 635.757 539.371C635.795 537.272 635.611 535.174 635.207 533.113C634.956 531.064 634.413 529.06 633.597 527.164C631.929 523.789 627.966 520.993 624.91 524.56Z" fill="#2F2E41"/>
<path d="M650.999 507.541C651.01 505.225 650.47 502.939 649.424 500.872C648.378 498.805 646.856 497.016 644.983 495.652C644.927 491.54 643.412 487.581 640.708 484.482C638.005 481.382 634.289 479.344 630.223 478.73C629.436 474.834 627.301 471.341 624.192 468.866C621.083 466.391 617.201 465.093 613.229 465.2C609.257 465.307 605.45 466.813 602.479 469.452C599.508 472.091 597.564 475.694 596.989 479.626C591.59 478.411 586.654 479.993 585.757 483.32C584.793 486.8 588.649 490.87 594.357 492.412C596.145 492.918 598.009 493.104 599.862 492.962C601.189 494.911 602.909 496.561 604.912 497.807C606.914 499.052 609.155 499.865 611.489 500.194C612.175 503.339 613.725 506.23 615.965 508.542C618.205 510.854 621.046 512.494 624.168 513.279C625.032 515.366 626.372 517.222 628.082 518.698C628.082 519.103 628.015 519.517 628.015 519.942C627.953 521.424 628.191 522.903 628.715 524.291C629.24 525.679 630.039 526.946 631.066 528.017C632.093 529.088 633.325 529.94 634.69 530.522C636.054 531.104 637.522 531.404 639.006 531.404C640.489 531.404 641.957 531.104 643.322 530.522C644.686 529.94 645.919 529.088 646.946 528.017C647.972 526.946 648.772 525.679 649.296 524.291C649.821 522.903 650.059 521.424 649.997 519.942C649.997 518.278 649.639 516.633 648.946 515.12C650.301 512.825 651.011 510.207 650.999 507.541V507.541Z" fill="#F86D70"/>
<path opacity="0.1" d="M589.421 483.985C590.317 480.658 595.205 479.077 600.653 480.292C601.286 476.298 603.31 472.656 606.368 470.01C609.425 467.364 613.318 465.882 617.361 465.828C617.737 465.828 618.113 465.828 618.479 465.828C616.917 465.351 615.292 465.111 613.659 465.114C609.616 465.169 605.722 466.65 602.665 469.296C599.608 471.943 597.584 475.584 596.95 479.578C591.551 478.363 586.615 479.944 585.718 483.271C584.754 486.752 588.611 490.821 594.318 492.364C595.38 492.658 596.468 492.846 597.567 492.923C592.149 491.342 588.505 487.388 589.421 483.985Z" fill="black"/>
<path opacity="0.1" d="M631.678 520.617C631.678 520.192 631.678 519.778 631.746 519.363C630.036 517.891 628.695 516.038 627.832 513.954C624.712 513.161 621.874 511.517 619.635 509.205C617.396 506.892 615.845 504.003 615.153 500.859C612.818 500.532 610.577 499.72 608.574 498.474C606.571 497.229 604.852 495.578 603.526 493.627C602.446 493.713 601.36 493.684 600.286 493.541C601.619 495.337 603.296 496.851 605.219 497.993C607.143 499.135 609.274 499.883 611.49 500.194C612.175 503.339 613.725 506.23 615.965 508.542C618.205 510.854 621.046 512.494 624.168 513.279C625.032 515.366 626.372 517.222 628.082 518.698C628.082 519.103 628.015 519.517 628.015 519.942C627.966 522.898 629.088 525.753 631.136 527.885C633.184 530.017 635.993 531.251 638.948 531.32C636.791 530.488 634.939 529.017 633.64 527.104C632.341 525.192 631.657 522.928 631.678 520.617Z" fill="black"/>
<path d="M612.977 503.129C613.859 502.459 613.85 500.964 612.958 499.789C612.066 498.615 610.628 498.205 609.746 498.875C608.864 499.545 608.872 501.041 609.764 502.216C610.657 503.39 612.095 503.799 612.977 503.129Z" fill="#FBBEBE"/>
<path d="M302.544 568.144L315.386 560.594C313.65 557.627 311.431 554.971 308.82 552.736L284.601 560.266L303.575 549.11C298.877 546.537 293.59 545.231 288.233 545.322C282.877 545.413 277.637 546.897 273.029 549.628C268.42 552.36 264.602 556.244 261.95 560.899C259.298 565.554 257.904 570.819 257.905 576.177C257.905 593.215 271.721 593.803 288.757 593.803C305.793 593.803 319.609 593.215 319.609 576.177C319.619 571.858 318.716 567.586 316.958 563.641L302.544 568.144Z" fill="#FF6347"/>
<path opacity="0.1" d="M305.812 584.71C304.445 583.339 302.917 582.138 301.262 581.133C298.938 579.58 296.518 577.999 293.77 577.478C291.36 577.015 288.873 577.411 286.414 577.266C282.145 577.005 278.127 575.163 275.143 572.098C273.389 570.285 272.01 568.058 269.898 566.669C267.539 565.267 264.754 564.757 262.05 565.232C261.267 565.341 260.491 565.499 259.727 565.705C258.518 569.064 257.902 572.607 257.905 576.176C257.905 593.215 271.721 593.803 288.757 593.803C297.029 593.803 304.53 593.668 310.074 591.575L309.11 589.849C308.234 588.003 307.126 586.276 305.812 584.71Z" fill="black"/>
</g>
<defs>
<linearGradient id="paint0_linear" x1="547.143" y1="616.771" x2="547.143" y2="462.839" gradientUnits="userSpaceOnUse">
<stop stop-color="#808080" stop-opacity="0.25"/>
<stop offset="0.54" stop-color="#808080" stop-opacity="0.12"/>
<stop offset="1" stop-color="#808080" stop-opacity="0.1"/>
</linearGradient>
<clipPath id="clip0">
<rect width="1102" height="640" fill="white"/>
</clipPath>
</defs>
</svg>
