<svg width="32" height="32" viewBox="0 0 32 32" fill="none" xmlns="http://www.w3.org/2000/svg">
<path d="M26 2H6C4.93913 2 3.92172 2.42143 3.17157 3.17157C2.42143 3.92172 2 4.93913 2 6V26C2 27.0609 2.42143 28.0783 3.17157 28.8284C3.92172 29.5786 4.93913 30 6 30H17.33V20.67H14V17.33H17.33V14C17.33 12.6739 17.8568 11.4021 18.7945 10.4645C19.7321 9.52678 21.0039 9 22.33 9H24V12.33H22.33C22.1112 12.33 21.8945 12.3733 21.6924 12.4573C21.4904 12.5414 21.3069 12.6645 21.1527 12.8197C20.9984 12.9749 20.8763 13.1591 20.7935 13.3617C20.7106 13.5642 20.6687 13.7812 20.67 14V17.33H24L23.17 20.67H20.67V30H26C27.0609 30 28.0783 29.5786 28.8284 28.8284C29.5786 28.0783 30 27.0609 30 26V6C30 4.93913 29.5786 3.92172 28.8284 3.17157C28.0783 2.42143 27.0609 2 26 2ZM28 26C28 26.5304 27.7893 27.0391 27.4142 27.4142C27.0391 27.7893 26.5304 28 26 28H22.67V22.67H23.17C23.6167 22.6697 24.0504 22.5198 24.4019 22.2443C24.7535 21.9688 25.0028 21.5836 25.11 21.15L25.94 17.82C26.0146 17.5248 26.0208 17.2165 25.9582 16.9186C25.8956 16.6207 25.7657 16.341 25.5786 16.1008C25.3915 15.8606 25.1521 15.6664 24.8785 15.5328C24.6049 15.3992 24.3044 15.3299 24 15.33H22.67V14.33H24C24.5304 14.33 25.0391 14.1193 25.4142 13.7442C25.7893 13.3691 26 12.8604 26 12.33V9C26 8.46957 25.7893 7.96086 25.4142 7.58579C25.0391 7.21071 24.5304 7 24 7H22.33C20.4735 7 18.693 7.7375 17.3803 9.05025C16.0675 10.363 15.33 12.1435 15.33 14V15.33H14C13.4696 15.33 12.9609 15.5407 12.5858 15.9158C12.2107 16.2909 12 16.7996 12 17.33V20.67C12 21.2004 12.2107 21.7091 12.5858 22.0842C12.9609 22.4593 13.4696 22.67 14 22.67H15.33V28H6C5.46957 28 4.96086 27.7893 4.58579 27.4142C4.21071 27.0391 4 26.5304 4 26V6C4 5.46957 4.21071 4.96086 4.58579 4.58579C4.96086 4.21071 5.46957 4 6 4H26C26.5304 4 27.0391 4.21071 27.4142 4.58579C27.7893 4.96086 28 5.46957 28 6V26Z" fill="#D4D4D4"/>
</svg>
