<svg width="32" height="32" viewBox="0 0 32 32" fill="none" xmlns="http://www.w3.org/2000/svg">
<path d="M22 3H10C8.14348 3 6.36301 3.7375 5.05025 5.05025C3.7375 6.36301 3 8.14348 3 10V22C3 23.8565 3.7375 25.637 5.05025 26.9497C6.36301 28.2625 8.14348 29 10 29H22C23.8565 29 25.637 28.2625 26.9497 26.9497C28.2625 25.637 29 23.8565 29 22V10C29 8.14348 28.2625 6.36301 26.9497 5.05025C25.637 3.7375 23.8565 3 22 3V3ZM27 22C27 23.3261 26.4732 24.5979 25.5355 25.5355C24.5979 26.4732 23.3261 27 22 27H10C8.67392 27 7.40215 26.4732 6.46447 25.5355C5.52678 24.5979 5 23.3261 5 22V10C5 8.67392 5.52678 7.40215 6.46447 6.46447C7.40215 5.52678 8.67392 5 10 5H22C23.3261 5 24.5979 5.52678 25.5355 6.46447C26.4732 7.40215 27 8.67392 27 10V22Z" fill="#D4D4D4"/>
<path d="M16 9C14.6155 9 13.2622 9.41054 12.111 10.1797C10.9599 10.9489 10.0627 12.0421 9.53285 13.3212C9.00303 14.6003 8.86441 16.0078 9.13451 17.3656C9.4046 18.7235 10.0713 19.9708 11.0503 20.9497C12.0292 21.9287 13.2765 22.5954 14.6344 22.8655C15.9922 23.1356 17.3997 22.997 18.6788 22.4672C19.9579 21.9373 21.0511 21.0401 21.8203 19.889C22.5895 18.7378 23 17.3845 23 16C23 14.1435 22.2625 12.363 20.9497 11.0503C19.637 9.7375 17.8565 9 16 9V9ZM16 21C15.0111 21 14.0444 20.7068 13.2222 20.1573C12.3999 19.6079 11.759 18.827 11.3806 17.9134C11.0022 16.9998 10.9031 15.9945 11.0961 15.0245C11.289 14.0546 11.7652 13.1637 12.4645 12.4645C13.1637 11.7652 14.0546 11.289 15.0246 11.0961C15.9945 10.9031 16.9998 11.0022 17.9134 11.3806C18.8271 11.759 19.6079 12.3999 20.1574 13.2221C20.7068 14.0444 21 15.0111 21 16C21 17.3261 20.4732 18.5979 19.5355 19.5355C18.5979 20.4732 17.3261 21 16 21Z" fill="#D4D4D4"/>
<path d="M23 10.5C23.8284 10.5 24.5 9.82843 24.5 9C24.5 8.17157 23.8284 7.5 23 7.5C22.1716 7.5 21.5 8.17157 21.5 9C21.5 9.82843 22.1716 10.5 23 10.5Z" fill="#D4D4D4"/>
</svg>
