<svg width="32" height="32" viewBox="0 0 32 32" fill="none" xmlns="http://www.w3.org/2000/svg">
<path d="M9 11H4C3.73478 11 3.48043 11.1054 3.29289 11.2929C3.10536 11.4804 3 11.7348 3 12V27.9C3 28.1652 3.10536 28.4196 3.29289 28.6071C3.48043 28.7946 3.73478 28.9 4 28.9H9C9.26522 28.9 9.51957 28.7946 9.70711 28.6071C9.89464 28.4196 10 28.1652 10 27.9V12C10 11.7348 9.89464 11.4804 9.70711 11.2929C9.51957 11.1054 9.26522 11 9 11ZM8 26.9H5V13H8V26.9Z" fill="#D4D4D4"/>
<path d="M6.5 3.5C5.80777 3.5 5.13108 3.70527 4.55551 4.08986C3.97993 4.47444 3.53133 5.02107 3.26642 5.66061C3.00152 6.30015 2.9322 7.00388 3.06725 7.68282C3.2023 8.36175 3.53564 8.98539 4.02513 9.47487C4.51461 9.96436 5.13825 10.2977 5.81719 10.4327C6.49612 10.5678 7.19985 10.4985 7.83939 10.2336C8.47894 9.96867 9.02556 9.52007 9.41015 8.9445C9.79473 8.36892 10 7.69223 10 7C10 6.07174 9.63125 5.1815 8.97487 4.52513C8.3185 3.86875 7.42826 3.5 6.5 3.5V3.5ZM6.5 8.5C6.20333 8.5 5.91332 8.41203 5.66665 8.2472C5.41997 8.08238 5.22771 7.84811 5.11418 7.57403C5.00065 7.29994 4.97095 6.99834 5.02882 6.70736C5.0867 6.41639 5.22956 6.14912 5.43934 5.93934C5.64912 5.72956 5.91639 5.5867 6.20737 5.52882C6.49834 5.47094 6.79994 5.50065 7.07403 5.61418C7.34812 5.72771 7.58238 5.91997 7.74721 6.16664C7.91203 6.41332 8 6.70333 8 7C8 7.39782 7.84197 7.77936 7.56066 8.06066C7.27936 8.34196 6.89783 8.5 6.5 8.5V8.5Z" fill="#D4D4D4"/>
<path d="M23 10.9999C21.6037 10.9907 20.2277 11.3347 19 11.9999C19 11.7347 18.8946 11.4804 18.7071 11.2928C18.5196 11.1053 18.2652 10.9999 18 10.9999H13C12.7348 10.9999 12.4804 11.1053 12.2929 11.2928C12.1054 11.4804 12 11.7347 12 11.9999V27.9999C12 28.2652 12.1054 28.5195 12.2929 28.707C12.4804 28.8946 12.7348 28.9999 13 28.9999H18C18.2652 28.9999 18.5196 28.8946 18.7071 28.707C18.8946 28.5195 19 28.2652 19 27.9999V19.9999C19 18.9999 19.56 17.9999 20.5 17.9999C21.44 17.9999 22 18.9999 22 19.9999V27.9999C22 28.2652 22.1054 28.5195 22.2929 28.707C22.4804 28.8946 22.7348 28.9999 23 28.9999H28C28.2652 28.9999 28.5196 28.8946 28.7071 28.707C28.8946 28.5195 29 28.2652 29 27.9999V17.9999C29 16.1799 27.9 10.9999 23 10.9999ZM27 26.9999H24V19.9999C24.0353 19.507 23.9725 19.0119 23.8153 18.5433C23.6582 18.0747 23.4096 17.642 23.0842 17.27C22.7587 16.8981 22.3628 16.5943 21.9192 16.3763C21.4757 16.1583 20.9933 16.0304 20.5 15.9999C20.0067 16.0304 19.5243 16.1583 19.0808 16.3763C18.6372 16.5943 18.2413 16.8981 17.9158 17.27C17.5904 17.642 17.3418 18.0747 17.1847 18.5433C17.0275 19.0119 16.9647 19.507 17 19.9999V26.9999H14V12.9999H17V13.9999C17.0006 14.2081 17.0663 14.411 17.1877 14.5801C17.3091 14.7492 17.4803 14.8762 17.6774 14.9434C17.8745 15.0105 18.0876 15.0145 18.2871 14.9547C18.4865 14.895 18.6623 14.7744 18.79 14.6099C19.3336 14.0531 19.9914 13.6208 20.7183 13.3428C21.4451 13.0648 22.2236 12.9479 23 12.9999C26.83 12.9999 27 17.9499 27 17.9999V26.9999Z" fill="#D4D4D4"/>
</svg>
