<svg width="32" height="32" viewBox="0 0 32 32" fill="none" xmlns="http://www.w3.org/2000/svg">
<path d="M29.74 7.86999C29.9128 7.56519 30.0024 7.22035 30 6.86999C30 6.33956 29.7893 5.83085 29.4142 5.45578C29.0392 5.08071 28.5305 4.86999 28 4.86999C27.6441 4.8857 27.2989 4.99617 27 5.18999C26.8866 5.26805 26.7796 5.35499 26.68 5.44999V5.44999C26.4943 5.58687 26.2929 5.70101 26.08 5.78999C25.15 4.9118 23.9942 4.30939 22.7417 4.05005C21.4891 3.79071 20.1892 3.88464 18.9869 4.32135C17.7847 4.75806 16.7275 5.52036 15.9334 6.52313C15.1393 7.5259 14.6396 8.72966 14.49 9.99999C9.13002 8.99999 7.60002 6.05999 7.59002 5.99999C7.44088 5.69532 7.21669 5.43358 6.93854 5.23941C6.66039 5.04523 6.33743 4.92499 6.00002 4.88999H5.80002C5.48953 4.88999 5.1833 4.96228 4.90559 5.10114C4.62788 5.23999 4.38631 5.4416 4.20002 5.68999C3.62225 6.52642 3.24424 7.48434 3.09514 8.48992C2.94604 9.49551 3.02981 10.5219 3.34002 11.49C2.92407 11.8693 2.6639 12.3896 2.61002 12.95C2.61994 14.9169 3.36138 16.8097 4.69002 18.26V18.36C4.6964 19.1 4.8816 19.8275 5.22985 20.4804C5.57809 21.1334 6.07905 21.6925 6.69002 22.11C5.81051 22.3596 4.90378 22.5006 3.99002 22.53C3.52494 22.5312 3.07482 22.6944 2.71709 22.9916C2.35936 23.2888 2.11638 23.7014 2.02996 24.1583C1.94353 24.6153 2.01907 25.0881 2.24357 25.4954C2.46807 25.9027 2.8275 26.2191 3.26002 26.39C6.05282 27.4479 9.01357 27.9933 12 28C17.29 28 26.33 26 28.1 12.66C28.6802 12.0348 29.2118 11.3662 29.69 10.66C29.9304 10.3019 30.0485 9.87577 30.0269 9.44507C30.0053 9.01436 29.845 8.60218 29.57 8.26999C29.63 8.08999 29.7 7.99999 29.74 7.86999ZM26.18 10.25C26.809 10.0707 27.4186 9.82952 28 9.52999C27.4669 10.3209 26.8536 11.0548 26.17 11.72C24.89 23.28 18 26 12 26C9.26639 25.9881 6.55697 25.4869 4.00002 24.52C4.00002 24.52 8.44002 24.52 11.11 21.88C11.11 21.88 6.67002 20.99 6.67002 18.35H8.44002C5.16002 17.53 4.15002 13 4.72002 13C4.78694 13.0116 4.84736 13.0471 4.89002 13.1C5.66087 13.6754 6.59808 13.9843 7.56002 13.98C3.11002 10.41 5.78002 6.87999 5.78002 6.87999C5.78002 6.87999 8.00002 11.67 16.69 12.36C16.5246 11.8737 16.4401 11.3636 16.44 10.85C16.4426 10.2105 16.5712 9.57769 16.8184 8.98784C17.0655 8.39799 17.4265 7.86259 17.8805 7.41223C18.3346 6.96186 18.873 6.60535 19.4648 6.36303C20.0567 6.12072 20.6905 5.99736 21.33 5.99999C22.1384 5.9994 22.9344 6.198 23.6478 6.57823C24.3611 6.95845 24.9698 7.50859 25.42 8.17999C26.3511 7.90517 27.2251 7.4648 28 6.87999C27.4751 7.94024 26.8453 8.94526 26.12 9.87999C26.15 9.99999 26.16 10.12 26.18 10.25Z" fill="#D4D4D4"/>
</svg>
