<svg width="32" height="32" viewBox="0 0 32 32" fill="none" xmlns="http://www.w3.org/2000/svg">
<path d="M25.57 4.54008C19.2097 3.83007 12.7902 3.83007 6.42998 4.54008C5.21016 4.68005 4.08448 5.26397 3.2675 6.18054C2.45051 7.09711 1.99935 8.28225 1.99998 9.51008V22.5101C1.99195 23.7431 2.43979 24.9355 3.25747 25.8584C4.07515 26.7813 5.205 27.3695 6.42998 27.5101C9.60823 27.8532 12.8033 28.0168 16 28.0001C19.1974 28.0035 22.3925 27.8266 25.57 27.4701V27.4701C26.795 27.3295 27.9248 26.7413 28.7425 25.8184C29.5602 24.8955 30.008 23.7031 30 22.4701V9.47008C29.9908 8.24915 29.5353 7.07376 28.7192 6.16559C27.9032 5.25742 26.783 4.67923 25.57 4.54008V4.54008ZM28 22.5401C28.005 23.2786 27.7374 23.9931 27.2485 24.5467C26.7595 25.1002 26.0835 25.4539 25.35 25.5401V25.5401C19.1357 26.2301 12.8642 26.2301 6.64998 25.5401C5.91644 25.4539 5.24046 25.1002 4.75149 24.5467C4.26253 23.9931 3.99494 23.2786 3.99998 22.5401V9.54008C3.99494 8.80151 4.26253 8.08704 4.75149 7.5335C5.24046 6.97995 5.91644 6.62623 6.64998 6.54008C12.8648 5.86037 19.1352 5.86037 25.35 6.54008C26.0835 6.62623 26.7595 6.97995 27.2485 7.5335C27.7374 8.08704 28.005 8.80151 28 9.54008V22.5401Z" fill="#D4D4D4"/>
<path d="M21.05 15.1699L13.55 10.1699C13.4024 10.0744 13.2323 10.0195 13.0567 10.0108C12.8811 10.002 12.7064 10.0396 12.55 10.1199C12.3866 10.2023 12.2489 10.3278 12.1519 10.483C12.0549 10.6382 12.0024 10.817 12 10.9999V20.9999C12.0005 21.1808 12.05 21.3582 12.1434 21.5132C12.2367 21.6682 12.3703 21.7949 12.53 21.8799C12.6864 21.9602 12.8611 21.9979 13.0367 21.9891C13.2123 21.9803 13.3824 21.9254 13.53 21.8299L21.03 16.8299C21.1661 16.7385 21.2777 16.6149 21.3548 16.4702C21.4319 16.3254 21.4722 16.1639 21.4722 15.9999C21.4722 15.8359 21.4319 15.6744 21.3548 15.5297C21.2777 15.385 21.1661 15.2614 21.03 15.1699H21.05ZM14.05 19.1699V12.8699L18.7 15.9999L14.05 19.1699Z" fill="#D4D4D4"/>
</svg>
